<?xml version="1.0" encoding="utf-8"?>
<!-- Generator: Adobe Illustrator 20.1.0, SVG Export Plug-In . SVG Version: 6.00 Build 0)  -->
<svg version="1.1" id="Layer_1" xmlns="http://www.w3.org/2000/svg" xmlns:xlink="http://www.w3.org/1999/xlink" x="0px" y="0px"
	 viewBox="0 0 16.4 16.4" style="enable-background:new 0 0 16.4 16.4;" xml:space="preserve">
<style type="text/css">
	.st0{fill:#ffffff;}
</style>
<path class="st0" d="M15.5,0H0.9C0.4,0,0,0.4,0,0.9v14.6c0,0.5,0.4,0.9,0.9,0.9h7.8V10H6.6V7.6h2.1V5.7c0-2.1,1.3-3.3,3.2-3.3
	c0.9,0,1.7,0.1,1.9,0.1v2.2l-1.3,0c-1,0-1.2,0.5-1.2,1.2v1.6h2.4L13.4,10h-2.1v6.3h4.2c0.5,0,0.9-0.4,0.9-0.9V0.9
	C16.4,0.4,16,0,15.5,0z"/>
</svg>
